<svg width="18" height="18" viewBox="0 0 18 18" fill="none" xmlns="http://www.w3.org/2000/svg">
<path d="M15.4286 0C16.8469 0 18 1.15313 18 2.57143V15.4286C18 16.8469 16.8469 18 15.4286 18H2.57143C1.15313 18 0 16.8469 0 15.4286V2.57143C0 1.15313 1.15313 0 2.57143 0H15.4286ZM13.7411 4.5683C13.3112 4.25491 12.7085 4.35134 12.3951 4.78125L7.59777 11.3786L5.50446 9.28527C5.12679 8.90759 4.51607 8.90759 4.14241 9.28527C3.76875 9.66295 3.76473 10.2737 4.14241 10.6473L7.03527 13.5402C7.23616 13.7411 7.51339 13.8415 7.79062 13.8214C8.06786 13.8013 8.32902 13.6567 8.49375 13.4277L13.954 5.91429C14.2674 5.48437 14.171 4.8817 13.7411 4.5683Z" fill="#1B75DE"/>
</svg>
