<svg width="18" height="18" viewBox="0 0 18 18" fill="none" xmlns="http://www.w3.org/2000/svg">
<path d="M15.4286 0C16.8469 0 18 1.15313 18 2.57143V15.4286C18 16.8469 16.8469 18 15.4286 18H2.57143C1.15313 18 0 16.8469 0 15.4286V2.57143C0 1.15313 1.15313 0 2.57143 0H15.4286ZM2.57143 1.92857C2.21786 1.92857 1.92857 2.21786 1.92857 2.57143V15.4286C1.92857 15.7821 2.21786 16.0714 2.57143 16.0714H15.4286C15.7821 16.0714 16.0714 15.7821 16.0714 15.4286V2.57143C16.0714 2.21786 15.7821 1.92857 15.4286 1.92857H2.57143Z" fill="#1B75DE"/>
</svg>
